<svg width="3657" height="1080" viewBox="0 0 3657 1080" fill="none" xmlns="http://www.w3.org/2000/svg"><g clip-path="url(#a)"><path d="M2133.53 190q10.5-11 24-19.5a159.7 159.7 0 0 1 29.5-14c10.67-3.667 21.34-6.333 32-8q16.5-3 31.5-3 16.005 0 34.5 4 19.005 3.5 34.5 12c10.67 5.333 19.5 12.667 26.5 22q10.5 13.5 10.5 33c0 2.667-1.33 5.167-4 7.5q-3.495 3.5-7.5 3.5-7.995 0-12-3.5-3.495-4-6-10-1.995-6-4.5-12.5-2.49-6.5-7.5-12.5c-3-4-7.33-7.167-13-9.5-5.66-2.667-13.5-4-23.5-4-6.66 0-13.33.833-20 2.5q-9.99 2-19.5 5c-1 2-2.16 5.833-3.5 11.5-1 5.667-2.16 12.333-3.5 20-1.33 7.667-2.66 16-4 25q-1.5 13-3 25c-1 8-1.83 15.167-2.5 21.5-.66 6.333-1 10.833-1 13.5a164 164 0 0 1 17-5c5.67-1.333 11.5-2 17.5-2q15 0 30 7l-1 14c-13.66 1.333-26.5 5.5-38.5 12.5-11.66 7-23.33 13.667-35 20q0 15-1.5 30t-1.5 30q0 18.5 4.5 35 5.01 16.5 18 30 17.505-3.5 27-13.5c6.34-6.667 12.17-13.5 17.5-20.5 5.67-7.333 11.84-13.833 18.5-19.5q10.005-8.5 28.5-8.5c1.34 0 3 .167 5 .5 2.34 0 4.5.333 6.5 1 2 .333 3.67 1.167 5 2.5 1.67 1 2.5 2.5 2.5 4.5 0 .667-.16 1.5-.5 2.5-.33 1-.66 1.833-1 2.5-7 7.667-13.83 15.833-20.5 24.5-6.33 8.333-13.16 16-20.5 23-7.33 7-15.5 12.833-24.5 17.5s-19.33 7-31 7c-13.66 0-25.33-3.833-35-11.5-9.66-8-17.5-17.667-23.5-29q-9-17.5-13.5-37.5c-2.66-13.333-4-25.5-4-36.5q0-23 3-46c2-15.333 4.34-30.5 7-45.5 3-15.333 5.84-30.5 8.5-45.5a720 720 0 0 0 6.5-46c-4.66 2.667-9.33 5.833-14 9.5q-6.495 5.5-15 5.5c-6 0-11.83-2.5-17.5-7.5-5.33-5-9.5-9.833-12.5-14.5m339.17 272.5c7-2.667 15.83-6.333 26.5-11a941 941 0 0 1 32.5-13.5c11.33-4.667 22.16-8.5 32.5-11.5 10.66-3.333 19.33-5 26-5 4 0 8.33.5 13 1.5 4.66.667 9.33 2 14 4 4.66 1.667 9 3.833 13 6.5q6.495 3.5 10.5 8c-.34 1.667-1 3.833-2 6.5-.67 2.333-2.34 3.5-5 3.5-15 0-28.84 2.167-41.5 6.5-12.67 4.333-25 9-37 14a770 770 0 0 1-35 14c-11.67 4.333-23.84 6.5-36.5 6.5q-19.5 0-30-8.5c-6.67-6-11.5-13.5-14.5-22.5q-4.005-13.5-4.5-29.5c-.34-10.667-.5-20.833-.5-30.5 0-27.333.83-54.5 2.5-81.5q3-40.5 7.5-81c1.33-12 3.16-24.5 5.5-37.5 2.66-13.333 4-25.833 4-37.5q0-9.5-3-19.5c5 .333 10.33 1 16 2 5.66.667 10.83 2.167 15.5 4.5q7.5 3 12 9c3.33 3.667 5 8.833 5 15.5 0 2.667-.17 5.167-.5 7.5q-.51 3.5-1.5 7.5-12.51 66.5-19.5 133c-4.34 44-6.5 88.5-6.5 133.5 0 .667.16 1.667.5 3 .33 1 .66 1.833 1 2.5m-1004.54 443c0 5-.66 8.667-2 11-1.33 2.667-5.16 4-11.5 4q-7.5 0-13.5-6c-3.66-4-6.83-8.833-9.5-14.5-2.33-5.667-4.16-11.333-5.5-17-1.33-6-2-11-2-15 0-18 .34-36.667 1-56q1.5-29 3-58.5c1-19.667 1.84-39.167 2.5-58.5q1.5-29 1.5-56v-21q-6.495 2-12 .5c-3.33-1-6.5-2.667-9.5-5a92 92 0 0 1-8.5-7.5c-2.66-3-5.33-5.833-8-8.5q6-10.5 16.5-18 11.01-7.5 24-12c8.67-3.333 17.5-5.667 26.5-7 9-1.667 17.17-2.5 24.5-2.5 14.67 0 28 2.667 40 8 12 5 22.17 12.167 30.5 21.5 8.67 9 15.34 19.667 20 32 4.67 12.333 7 25.667 7 40q0 17.5-7.5 37.5c-4.66 13.333-11.33 25.833-20 37.5-8.33 11.333-18.16 20.833-29.5 28.5-11.33 7.667-23.5 11.5-36.5 11.5q-11.49 0-21-5zm1.5-158c21.67-10.667 39-25 52-43 13.34-18.333 20-39.833 20-64.5q0-8.5-1.5-18.5-1.5-10.5-6-19c-2.66-6-6.33-10.833-11-14.5q-6.99-6-18-6-7.5 0-15 2.5a72 72 0 0 0-13.5 6.5zM1642.14 603q10.5-11 24-19.5a159 159 0 0 1 29.5-14c10.66-3.667 21.33-6.333 32-8q16.5-3 31.5-3 15.99 0 34.5 4 18.99 3.5 34.5 12c10.66 5.333 19.5 12.667 26.5 22q10.5 13.5 10.5 33c0 2.667-1.34 5.167-4 7.5q-3.51 3.5-7.5 3.5-8.01 0-12-3.5-3.51-4-6-10-2.01-6-4.5-12.5-2.505-6.5-7.5-12.5c-3-4-7.34-7.167-13-9.5-5.67-2.667-13.5-4-23.5-4-6.67 0-13.34.833-20 2.5q-10.005 2-19.5 5c-1 2-2.17 5.833-3.5 11.5-1 5.667-2.17 12.333-3.5 20-1.34 7.667-2.67 16-4 25q-1.5 13-3 25c-1 8-1.84 15.167-2.5 21.5-.67 6.333-1 10.833-1 13.5 5.66-2 11.33-3.667 17-5 5.66-1.333 11.5-2 17.5-2q15 0 30 7l-1 14c-13.67 1.333-26.5 5.5-38.5 12.5-11.67 7-23.34 13.667-35 20q0 15-1.5 30t-1.5 30q0 18.5 4.5 35 4.995 16.5 18 30 17.49-3.5 27-13.5c6.33-6.667 12.16-13.5 17.5-20.5 5.66-7.333 11.83-13.833 18.5-19.5q9.99-8.5 28.5-8.5c1.33 0 3 .167 5 .5 2.33 0 4.5.333 6.5 1 2 .333 3.66 1.167 5 2.5 1.66 1 2.5 2.5 2.5 4.5 0 .667-.17 1.5-.5 2.5-.34 1-.67 1.833-1 2.5-7 7.667-13.84 15.833-20.5 24.5-6.34 8.333-13.17 16-20.5 23-7.34 7-15.5 12.833-24.5 17.5s-19.34 7-31 7c-13.67 0-25.34-3.833-35-11.5-9.67-8-17.5-17.667-23.5-29q-9-17.5-13.5-37.5c-2.67-13.333-4-25.5-4-36.5q0-23 3-46c2-15.333 4.33-30.5 7-45.5 3-15.333 5.83-30.5 8.5-45.5a734 734 0 0 0 6.5-46c-4.67 2.667-9.34 5.833-14 9.5q-6.51 5.5-15 5.5c-6 0-11.84-2.5-17.5-7.5-5.34-5-9.5-9.833-12.5-14.5m491.16 42c-1 12.333-3.33 22.833-7 31.5-3.33 8.667-7.5 16-12.5 22-4.67 6-9.83 11.167-15.5 15.5-5.67 4-11.33 7.667-17 11-5.33 3.333-10.5 6.5-15.5 9.5q-7.005 4.5-12 10.5c6 16.333 11.67 32.5 17 48.5s11.67 31.167 19 45.5c7.67 14 16.83 27 27.5 39 11 12 25.17 22.167 42.5 30.5-1.67 3.333-5 6-10 8-4.67 2.333-8.83 3.5-12.5 3.5q-6.495 0-13.5-3.5-24-10.5-40.5-27.5c-10.67-11.667-19.83-24.5-27.5-38.5s-14.33-28.833-20-44.5a7418 7418 0 0 0-16-46.5l-10.5-5-23 160.5a96 96 0 0 0-4.5 1q-1.995.5-4.5.5c-4 0-7.67-1-11-3-3-2-5.83-4.5-8.5-7.5q-4.005-4.5-7.5-9.5c-2-3.333-3.83-6.333-5.5-9 2-24 4.67-47.667 8-71q4.995-35.5 10.5-70c4-23.333 7.67-46.5 11-69.5 3.33-23.333 6-46.667 8-70-4.33 2-8.67 4.667-13 8-4 3.333-7.83 6.667-11.5 10q-5.505 5-10.5 8.5c-3 2.333-5.67 3.5-8 3.5-4.67 0-8.5-1.833-11.5-5.5s-5.33-7.333-7-11q8.505-14 21-25.5 13.005-12 28.5-20.5c10.33-6 21.17-10.5 32.5-13.5 11.33-3.333 22.5-5.333 33.5-6q20.505-1 39 3c12.67 2.333 23.5 7 32.5 14q13.995 10.5 21 28.5 7.005 17.5 4.5 44.5m-119 76.5q18-8.5 33-16c10.33-5 19-10.667 26-17 7.33-6.667 13-14.667 17-24 4.33-9.333 6.5-21.333 6.5-36 0-9-1.83-16.667-5.5-23q-5.505-9.5-15-14.5-9-5.5-21-6t-25.5 4c-2.67 22-5.33 44.167-8 66.5q-3.495 33-7.5 66m372.89-164q6.495.5 13.5.5c4.66 0 9 .667 13 2 4 1 7.16 2.833 9.5 5.5 2.66 2.667 4 7 4 13 0 2.333-.17 4.5-.5 6.5 0 2-.17 4.167-.5 6.5-5.67 43.667-9.34 87-11 130-1.67 43-3.84 86.333-6.5 130-.34 6.667-1 13.167-2 19.5q-1.5 9.5-1.5 19.5v5.5c0 1.667.16 3.333.5 5a56.6 56.6 0 0 1-7.5 4.5c-2.34 1.333-5 2-8 2-7.34 0-14-4-20-12-5.67-8-10.84-17.333-15.5-28-4.34-11-8.17-21.833-11.5-32.5-3.34-10.667-6.17-18.833-8.5-24.5-11.67-28-22.5-56-32.5-84q-14.505-42.5-33-84.5c-1.67 25.667-3 51.167-4 76.5-.67 25.333-1 50.833-1 76.5 0 17.333.16 34.667.5 52 .66 17.333 1 34.667 1 52 0 4-.84 7.167-2.5 9.5q-2.01 3.5-9 3.5c-4 0-7.67-1-11-3q-5.01-3-9-7.5c-2.34-3.333-4.5-6.833-6.5-10.5-1.67-3.667-3.34-7-5-10l-.5-65c0-38.333.83-76.5 2.5-114.5 1.66-38 5-76 10-114 1.66-.333 3.33-.5 5-.5 2-.333 3.83-.5 5.5-.5 9 0 17.83 3.833 26.5 11.5 8.66 7.667 16.83 17.667 24.5 30q12 18.5 22.5 41.5c7 15 13.33 30 19 45q8.49 22 15 41.5c4.66 12.667 8.33 22.833 11 30.5l3.5-7v6l1 .5c.66-.667 1.5-6.167 2.5-16.5 1.33-10.333 2.66-23.167 4-38.5 1.33-15.333 2.5-32.167 3.5-50.5 1.33-18.667 2.5-36.333 3.5-53 1.33-16.667 2.5-31.333 3.5-44 1-13 1.66-21.667 2-26M2501.32 770c1.33-35.333 3.66-70.667 7-106 3.33-35.333 7.5-70.667 12.5-106q19.995 1 31.5 9c7.66 5.333 11.33 15.167 11 29.5a924 924 0 0 1-9.5 100q-7.005 49.5-9 100c-.67 17-.34 34 1 51a419 419 0 0 1 1 50c0 3.667-1.17 6.333-3.5 8-2 1.667-4.67 2.5-8 2.5q-11.01-.5-18-8.5c-4.67-5.667-8.34-12.667-11-21-2.34-8.667-4-18.167-5-28.5q-1.5-16-1.5-31c0-10.333.16-19.833.5-28.5.33-8.667.66-15.5 1-20.5m176.64 105.5c7-2.667 15.83-6.333 26.5-11a949 949 0 0 1 32.5-13.5c11.33-4.667 22.17-8.5 32.5-11.5 10.67-3.333 19.33-5 26-5 4 0 8.33.5 13 1.5 4.67.667 9.33 2 14 4 4.67 1.667 9 3.833 13 6.5q6.495 3.5 10.5 8c-.33 1.667-1 3.833-2 6.5-.67 2.333-2.33 3.5-5 3.5-15 0-28.83 2.167-41.5 6.5s-25 9-37 14c-11.67 5-23.33 9.667-35 14s-23.83 6.5-36.5 6.5q-19.5 0-30-8.5c-6.67-6-11.5-13.5-14.5-22.5q-4.005-13.5-4.5-29.5c-.33-10.667-.5-20.833-.5-30.5 0-27.333.83-54.5 2.5-81.5q3-40.5 7.5-81c1.33-12 3.17-24.5 5.5-37.5 2.67-13.333 4-25.833 4-37.5q0-9.5-3-19.5c5 .333 10.33 1 16 2 5.67.667 10.83 2.167 15.5 4.5q7.5 3 12 9c3.33 3.667 5 8.833 5 15.5 0 2.667-.17 5.167-.5 7.5q-.495 3.5-1.5 7.5-12.495 66.5-19.5 133c-4.33 44-6.5 88.5-6.5 133.5 0 .667.17 1.667.5 3 .33 1 .67 1.833 1 2.5M2861.67 603q10.5-11 24-19.5a159 159 0 0 1 29.5-14c10.66-3.667 21.33-6.333 32-8q16.5-3 31.5-3 15.99 0 34.5 4 18.99 3.5 34.5 12c10.66 5.333 19.5 12.667 26.5 22q10.5 13.5 10.5 33c0 2.667-1.34 5.167-4 7.5q-3.51 3.5-7.5 3.5-8.01 0-12-3.5-3.51-4-6-10-2.01-6-4.5-12.5-2.505-6.5-7.5-12.5c-3-4-7.34-7.167-13-9.5-5.67-2.667-13.5-4-23.5-4-6.67 0-13.34.833-20 2.5q-10.005 2-19.5 5c-1 2-2.17 5.833-3.5 11.5-1 5.667-2.17 12.333-3.5 20-1.34 7.667-2.67 16-4 25q-1.5 13-3 25c-1 8-1.84 15.167-2.5 21.5-.67 6.333-1 10.833-1 13.5 5.66-2 11.33-3.667 17-5 5.66-1.333 11.5-2 17.5-2q15 0 30 7l-1 14c-13.67 1.333-26.5 5.5-38.5 12.5-11.67 7-23.34 13.667-35 20q0 15-1.5 30t-1.5 30q0 18.5 4.5 35 4.995 16.5 18 30 17.49-3.5 27-13.5c6.33-6.667 12.16-13.5 17.5-20.5 5.66-7.333 11.83-13.833 18.5-19.5q9.99-8.5 28.5-8.5c1.33 0 3 .167 5 .5 2.33 0 4.5.333 6.5 1 2 .333 3.66 1.167 5 2.5 1.66 1 2.5 2.5 2.5 4.5 0 .667-.17 1.5-.5 2.5-.34 1-.67 1.833-1 2.5-7 7.667-13.84 15.833-20.5 24.5-6.34 8.333-13.17 16-20.5 23-7.34 7-15.5 12.833-24.5 17.5s-19.34 7-31 7c-13.67 0-25.34-3.833-35-11.5-9.67-8-17.5-17.667-23.5-29q-9-17.5-13.5-37.5c-2.67-13.333-4-25.5-4-36.5q0-23 3-46c2-15.333 4.33-30.5 7-45.5 3-15.333 5.83-30.5 8.5-45.5a734 734 0 0 0 6.5-46c-4.67 2.667-9.34 5.833-14 9.5q-6.51 5.5-15 5.5c-6 0-11.84-2.5-17.5-7.5-5.34-5-9.5-9.833-12.5-14.5m439.02-13a4887 4887 0 0 0-4.5 78c-1 26.667-2.34 53.5-4 80.5-1.34 26.667-3 53.333-5 80a1884 1884 0 0 1-6.5 77.5c-.34 2.667-1 4.667-2 6s-2.84 2-5.5 2q-11.01 0-21-7c-6.67-4.667-10-10.833-10-18.5 0-47.667 1.83-95.833 5.5-144.5 4-49 7.83-97.333 11.5-145q-16.5 1-31.5 2.5t-31.5 1.5c-18 0-34.17-2.833-48.5-8.5-14-6-26.84-16-38.5-30l9-.5c11 1.667 21.16 4 30.5 7 9.66 3 20.5 4.5 32.5 4.5q21 0 42-3.5c14-2.667 27.83-5.5 41.5-8.5 13.66-3 27.5-5.667 41.5-8q21-4 42-4c13.33 0 25.66 2.167 37 6.5 11.66 4.333 22.33 11.167 32 20.5l3 6.5q0 4-3 6.5-2.505 2-6 2c-1.34 0-3.67-.667-7-2-3-1.333-6.67-2.667-11-4q-6-2.5-13.5-4.5t-15-2c-11.67 0-22.34 1-32 3-9.67 2-20.34 4-32 6" fill="#222"/><path fill-rule="evenodd" clip-rule="evenodd" d="M733.955 95.928c-74.826 58.858-74.485 143.843 1.033 257.844 69.598 105.067 92.059 157.269 96.464 224.164 16.264 247.071-248.86 430.984-516.668 358.412-6.288-1.704 7.26 6.17 30.106 17.503 224.097 111.139 499.755-2.983 579.786-240.037 38.631-114.429 19.184-205.975-87.176-410.355-49.668-95.444-73.753-159.801-73.753-197.095 0-28.135-5.042-29.904-29.792-10.436M201.37 197.457c2.484 55.848.307 68.9-25.765 154.465-51.886 170.267-51.582 232.082 1.589 325.394 143.641 252.086 600.57 218.217 600.374-44.501-.081-109.161-156.368-161.89-264.281-89.17-114.976 77.482 17.683 218.146 165.698 175.694 28.877-8.279 28.708.965-.419 23.184-79.548 60.671-217.248 55.868-297.569-10.379-70.462-58.119-81.303-140.333-36.904-279.833 59.834-187.979 24.369-274.497-127.707-311.535l-17.729-4.32zm486.903 218.609c-23.156 11.908-33.765 30.163-23.491 40.434 8.158 8.157 16.927 6.068 37.984-9.045 9.514-6.835 14.297-6.065 25.526 4.094 15.687 14.199 28.533 9.76 28.533-9.852 0-24.122-41.396-39.597-68.552-25.631m-229.149 16.903c-18.422 6.733-41.541 31.776-41.541 44.996 0 21.534 19.022 22.155 37.035 1.209 15.154-17.618 18.458-18.654 35.172-11.037 26.683 12.157 38.567 10.372 38.567-5.795 0-9.659-7.678-17.409-24.01-24.23-25.57-10.685-28.999-11.073-45.223-5.143M603.227 610.3c2.042 24.787-7.162 46.249-19.839 46.249-12.052 0-27.338-22.728-27.338-40.65 0-43.836 43.603-49.01 47.177-5.599m94.01-18.958c12.016 31.314-3.891 69.635-25.465 61.356-15.849-6.082-22.461-34.527-12.899-55.51 8.626-18.935 31.975-22.492 38.364-5.846" fill="#FF7C60"/></g><defs><clipPath id="a"><path fill="#fff" d="M0 0h3657v1080H0z"/></clipPath></defs></svg>