<svg width="3657" height="1080" viewBox="0 0 3657 1080" fill="none" xmlns="http://www.w3.org/2000/svg">
<g clip-path="url(#clip0_1204_55)">
<path d="M2133.53 190C2140.53 182.667 2148.53 176.167 2157.53 170.5C2166.87 164.833 2176.7 160.167 2187.03 156.5C2197.7 152.833 2208.37 150.167 2219.03 148.5C2230.03 146.5 2240.53 145.5 2250.53 145.5C2261.2 145.5 2272.7 146.833 2285.03 149.5C2297.7 151.833 2309.2 155.833 2319.53 161.5C2330.2 166.833 2339.03 174.167 2346.03 183.5C2353.03 192.5 2356.53 203.5 2356.53 216.5C2356.53 219.167 2355.2 221.667 2352.53 224C2350.2 226.333 2347.7 227.5 2345.03 227.5C2339.7 227.5 2335.7 226.333 2333.03 224C2330.7 221.333 2328.7 218 2327.03 214C2325.7 210 2324.2 205.833 2322.53 201.5C2320.87 197.167 2318.37 193 2315.03 189C2312.03 185 2307.7 181.833 2302.03 179.5C2296.37 176.833 2288.53 175.5 2278.53 175.5C2271.87 175.5 2265.2 176.333 2258.53 178C2251.87 179.333 2245.37 181 2239.03 183C2238.03 185 2236.87 188.833 2235.53 194.5C2234.53 200.167 2233.37 206.833 2232.03 214.5C2230.7 222.167 2229.37 230.5 2228.03 239.5C2227.03 248.167 2226.03 256.5 2225.03 264.5C2224.03 272.5 2223.2 279.667 2222.53 286C2221.87 292.333 2221.53 296.833 2221.53 299.5C2227.2 297.5 2232.87 295.833 2238.53 294.5C2244.2 293.167 2250.03 292.5 2256.03 292.5C2266.03 292.5 2276.03 294.833 2286.03 299.5L2285.03 313.5C2271.37 314.833 2258.53 319 2246.53 326C2234.87 333 2223.2 339.667 2211.53 346C2211.53 356 2211.03 366 2210.03 376C2209.03 386 2208.53 396 2208.53 406C2208.53 418.333 2210.03 430 2213.03 441C2216.37 452 2222.37 462 2231.03 471C2242.7 468.667 2251.7 464.167 2258.03 457.5C2264.37 450.833 2270.2 444 2275.53 437C2281.2 429.667 2287.37 423.167 2294.03 417.5C2300.7 411.833 2310.2 409 2322.53 409C2323.87 409 2325.53 409.167 2327.53 409.5C2329.87 409.5 2332.03 409.833 2334.03 410.5C2336.03 410.833 2337.7 411.667 2339.03 413C2340.7 414 2341.53 415.5 2341.53 417.5C2341.53 418.167 2341.37 419 2341.03 420C2340.7 421 2340.37 421.833 2340.03 422.5C2333.03 430.167 2326.2 438.333 2319.53 447C2313.2 455.333 2306.37 463 2299.03 470C2291.7 477 2283.53 482.833 2274.53 487.5C2265.53 492.167 2255.2 494.5 2243.53 494.5C2229.87 494.5 2218.2 490.667 2208.53 483C2198.87 475 2191.03 465.333 2185.03 454C2179.03 442.333 2174.53 429.833 2171.53 416.5C2168.87 403.167 2167.53 391 2167.53 380C2167.53 364.667 2168.53 349.333 2170.53 334C2172.53 318.667 2174.87 303.5 2177.53 288.5C2180.53 273.167 2183.37 258 2186.03 243C2188.7 227.667 2190.87 212.333 2192.53 197C2187.87 199.667 2183.2 202.833 2178.53 206.5C2174.2 210.167 2169.2 212 2163.53 212C2157.53 212 2151.7 209.5 2146.03 204.5C2140.7 199.5 2136.53 194.667 2133.53 190ZM2472.7 462.5C2479.7 459.833 2488.53 456.167 2499.2 451.5C2509.86 446.833 2520.7 442.333 2531.7 438C2543.03 433.333 2553.86 429.5 2564.2 426.5C2574.86 423.167 2583.53 421.5 2590.2 421.5C2594.2 421.5 2598.53 422 2603.2 423C2607.86 423.667 2612.53 425 2617.2 427C2621.86 428.667 2626.2 430.833 2630.2 433.5C2634.53 435.833 2638.03 438.5 2640.7 441.5C2640.36 443.167 2639.7 445.333 2638.7 448C2638.03 450.333 2636.36 451.5 2633.7 451.5C2618.7 451.5 2604.86 453.667 2592.2 458C2579.53 462.333 2567.2 467 2555.2 472C2543.53 477 2531.86 481.667 2520.2 486C2508.53 490.333 2496.36 492.5 2483.7 492.5C2470.7 492.5 2460.7 489.667 2453.7 484C2447.03 478 2442.2 470.5 2439.2 461.5C2436.53 452.5 2435.03 442.667 2434.7 432C2434.36 421.333 2434.2 411.167 2434.2 401.5C2434.2 374.167 2435.03 347 2436.7 320C2438.7 293 2441.2 266 2444.2 239C2445.53 227 2447.36 214.5 2449.7 201.5C2452.36 188.167 2453.7 175.667 2453.7 164C2453.7 157.667 2452.7 151.167 2450.7 144.5C2455.7 144.833 2461.03 145.5 2466.7 146.5C2472.36 147.167 2477.53 148.667 2482.2 151C2487.2 153 2491.2 156 2494.2 160C2497.53 163.667 2499.2 168.833 2499.2 175.5C2499.2 178.167 2499.03 180.667 2498.7 183C2498.36 185.333 2497.86 187.833 2497.2 190.5C2488.86 234.833 2482.36 279.167 2477.7 323.5C2473.36 367.5 2471.2 412 2471.2 457C2471.2 457.667 2471.36 458.667 2471.7 460C2472.03 461 2472.36 461.833 2472.7 462.5ZM1468.16 905.5C1468.16 910.5 1467.5 914.167 1466.16 916.5C1464.83 919.167 1461 920.5 1454.66 920.5C1449.66 920.5 1445.16 918.5 1441.16 914.5C1437.5 910.5 1434.33 905.667 1431.66 900C1429.33 894.333 1427.5 888.667 1426.16 883C1424.83 877 1424.16 872 1424.16 868C1424.16 850 1424.5 831.333 1425.16 812C1426.16 792.667 1427.16 773.167 1428.16 753.5C1429.16 733.833 1430 714.333 1430.66 695C1431.66 675.667 1432.16 657 1432.16 639V618C1427.83 619.333 1423.83 619.5 1420.16 618.5C1416.83 617.5 1413.66 615.833 1410.66 613.5C1407.66 611.167 1404.83 608.667 1402.16 606C1399.5 603 1396.83 600.167 1394.16 597.5C1398.16 590.5 1403.66 584.5 1410.66 579.5C1418 574.5 1426 570.5 1434.66 567.5C1443.33 564.167 1452.16 561.833 1461.16 560.5C1470.16 558.833 1478.33 558 1485.66 558C1500.33 558 1513.66 560.667 1525.66 566C1537.66 571 1547.83 578.167 1556.16 587.5C1564.83 596.5 1571.5 607.167 1576.16 619.5C1580.83 631.833 1583.16 645.167 1583.16 659.5C1583.16 671.167 1580.66 683.667 1575.66 697C1571 710.333 1564.33 722.833 1555.66 734.5C1547.33 745.833 1537.5 755.333 1526.16 763C1514.83 770.667 1502.66 774.5 1489.66 774.5C1482 774.5 1475 772.833 1468.66 769.5L1468.16 905.5ZM1469.66 747.5C1491.33 736.833 1508.66 722.5 1521.66 704.5C1535 686.167 1541.66 664.667 1541.66 640C1541.66 634.333 1541.16 628.167 1540.16 621.5C1539.16 614.5 1537.16 608.167 1534.16 602.5C1531.5 596.5 1527.83 591.667 1523.16 588C1518.5 584 1512.5 582 1505.16 582C1500.16 582 1495.16 582.833 1490.16 584.5C1485.5 586.167 1481 588.333 1476.66 591L1469.66 747.5ZM1642.14 603C1649.14 595.667 1657.14 589.167 1666.14 583.5C1675.47 577.833 1685.3 573.167 1695.64 569.5C1706.3 565.833 1716.97 563.167 1727.64 561.5C1738.64 559.5 1749.14 558.5 1759.14 558.5C1769.8 558.5 1781.3 559.833 1793.64 562.5C1806.3 564.833 1817.8 568.833 1828.14 574.5C1838.8 579.833 1847.64 587.167 1854.64 596.5C1861.64 605.5 1865.14 616.5 1865.14 629.5C1865.14 632.167 1863.8 634.667 1861.14 637C1858.8 639.333 1856.3 640.5 1853.64 640.5C1848.3 640.5 1844.3 639.333 1841.64 637C1839.3 634.333 1837.3 631 1835.64 627C1834.3 623 1832.8 618.833 1831.14 614.5C1829.47 610.167 1826.97 606 1823.64 602C1820.64 598 1816.3 594.833 1810.64 592.5C1804.97 589.833 1797.14 588.5 1787.14 588.5C1780.47 588.5 1773.8 589.333 1767.14 591C1760.47 592.333 1753.97 594 1747.64 596C1746.64 598 1745.47 601.833 1744.14 607.5C1743.14 613.167 1741.97 619.833 1740.64 627.5C1739.3 635.167 1737.97 643.5 1736.64 652.5C1735.64 661.167 1734.64 669.5 1733.64 677.5C1732.64 685.5 1731.8 692.667 1731.14 699C1730.47 705.333 1730.14 709.833 1730.14 712.5C1735.8 710.5 1741.47 708.833 1747.14 707.5C1752.8 706.167 1758.64 705.5 1764.64 705.5C1774.64 705.5 1784.64 707.833 1794.64 712.5L1793.64 726.5C1779.97 727.833 1767.14 732 1755.14 739C1743.47 746 1731.8 752.667 1720.14 759C1720.14 769 1719.64 779 1718.64 789C1717.64 799 1717.14 809 1717.14 819C1717.14 831.333 1718.64 843 1721.64 854C1724.97 865 1730.97 875 1739.64 884C1751.3 881.667 1760.3 877.167 1766.64 870.5C1772.97 863.833 1778.8 857 1784.14 850C1789.8 842.667 1795.97 836.167 1802.64 830.5C1809.3 824.833 1818.8 822 1831.14 822C1832.47 822 1834.14 822.167 1836.14 822.5C1838.47 822.5 1840.64 822.833 1842.64 823.5C1844.64 823.833 1846.3 824.667 1847.64 826C1849.3 827 1850.14 828.5 1850.14 830.5C1850.14 831.167 1849.97 832 1849.64 833C1849.3 834 1848.97 834.833 1848.64 835.5C1841.64 843.167 1834.8 851.333 1828.14 860C1821.8 868.333 1814.97 876 1807.64 883C1800.3 890 1792.14 895.833 1783.14 900.5C1774.14 905.167 1763.8 907.5 1752.14 907.5C1738.47 907.5 1726.8 903.667 1717.14 896C1707.47 888 1699.64 878.333 1693.64 867C1687.64 855.333 1683.14 842.833 1680.14 829.5C1677.47 816.167 1676.14 804 1676.14 793C1676.14 777.667 1677.14 762.333 1679.14 747C1681.14 731.667 1683.47 716.5 1686.14 701.5C1689.14 686.167 1691.97 671 1694.64 656C1697.3 640.667 1699.47 625.333 1701.14 610C1696.47 612.667 1691.8 615.833 1687.14 619.5C1682.8 623.167 1677.8 625 1672.14 625C1666.14 625 1660.3 622.5 1654.64 617.5C1649.3 612.5 1645.14 607.667 1642.14 603ZM2133.3 645C2132.3 657.333 2129.97 667.833 2126.3 676.5C2122.97 685.167 2118.8 692.5 2113.8 698.5C2109.13 704.5 2103.97 709.667 2098.3 714C2092.63 718 2086.97 721.667 2081.3 725C2075.97 728.333 2070.8 731.5 2065.8 734.5C2061.13 737.5 2057.13 741 2053.8 745C2059.8 761.333 2065.47 777.5 2070.8 793.5C2076.13 809.5 2082.47 824.667 2089.8 839C2097.47 853 2106.63 866 2117.3 878C2128.3 890 2142.47 900.167 2159.8 908.5C2158.13 911.833 2154.8 914.5 2149.8 916.5C2145.13 918.833 2140.97 920 2137.3 920C2132.97 920 2128.47 918.833 2123.8 916.5C2107.8 909.5 2094.3 900.333 2083.3 889C2072.63 877.333 2063.47 864.5 2055.8 850.5C2048.13 836.5 2041.47 821.667 2035.8 806C2030.47 790.333 2025.13 774.833 2019.8 759.5L2009.3 754.5L1986.3 915C1984.63 915.333 1983.13 915.667 1981.8 916C1980.47 916.333 1978.97 916.5 1977.3 916.5C1973.3 916.5 1969.63 915.5 1966.3 913.5C1963.3 911.5 1960.47 909 1957.8 906C1955.13 903 1952.63 899.833 1950.3 896.5C1948.3 893.167 1946.47 890.167 1944.8 887.5C1946.8 863.5 1949.47 839.833 1952.8 816.5C1956.13 792.833 1959.63 769.5 1963.3 746.5C1967.3 723.167 1970.97 700 1974.3 677C1977.63 653.667 1980.3 630.333 1982.3 607C1977.97 609 1973.63 611.667 1969.3 615C1965.3 618.333 1961.47 621.667 1957.8 625C1954.13 628.333 1950.63 631.167 1947.3 633.5C1944.3 635.833 1941.63 637 1939.3 637C1934.63 637 1930.8 635.167 1927.8 631.5C1924.8 627.833 1922.47 624.167 1920.8 620.5C1926.47 611.167 1933.47 602.667 1941.8 595C1950.47 587 1959.97 580.167 1970.3 574.5C1980.63 568.5 1991.47 564 2002.8 561C2014.13 557.667 2025.3 555.667 2036.3 555C2049.97 554.333 2062.97 555.333 2075.3 558C2087.97 560.333 2098.8 565 2107.8 572C2117.13 579 2124.13 588.5 2128.8 600.5C2133.47 612.167 2134.97 627 2133.3 645ZM2014.3 721.5C2026.3 715.833 2037.3 710.5 2047.3 705.5C2057.63 700.5 2066.3 694.833 2073.3 688.5C2080.63 681.833 2086.3 673.833 2090.3 664.5C2094.63 655.167 2096.8 643.167 2096.8 628.5C2096.8 619.5 2094.97 611.833 2091.3 605.5C2087.63 599.167 2082.63 594.333 2076.3 591C2070.3 587.333 2063.3 585.333 2055.3 585C2047.3 584.667 2038.8 586 2029.8 589C2027.13 611 2024.47 633.167 2021.8 655.5C2019.47 677.5 2016.97 699.5 2014.3 721.5ZM2387.19 557.5C2391.52 557.833 2396.02 558 2400.69 558C2405.35 558 2409.69 558.667 2413.69 560C2417.69 561 2420.85 562.833 2423.19 565.5C2425.85 568.167 2427.19 572.5 2427.19 578.5C2427.19 580.833 2427.02 583 2426.69 585C2426.69 587 2426.52 589.167 2426.19 591.5C2420.52 635.167 2416.85 678.5 2415.19 721.5C2413.52 764.5 2411.35 807.833 2408.69 851.5C2408.35 858.167 2407.69 864.667 2406.69 871C2405.69 877.333 2405.19 883.833 2405.19 890.5C2405.19 892.167 2405.19 894 2405.19 896C2405.19 897.667 2405.35 899.333 2405.69 901C2403.35 902.667 2400.85 904.167 2398.19 905.5C2395.85 906.833 2393.19 907.5 2390.19 907.5C2382.85 907.5 2376.19 903.5 2370.19 895.5C2364.52 887.5 2359.35 878.167 2354.69 867.5C2350.35 856.5 2346.52 845.667 2343.19 835C2339.85 824.333 2337.02 816.167 2334.69 810.5C2323.02 782.5 2312.19 754.5 2302.19 726.5C2292.52 698.167 2281.52 670 2269.19 642C2267.52 667.667 2266.19 693.167 2265.19 718.5C2264.52 743.833 2264.19 769.333 2264.19 795C2264.19 812.333 2264.35 829.667 2264.69 847C2265.35 864.333 2265.69 881.667 2265.69 899C2265.69 903 2264.85 906.167 2263.19 908.5C2261.85 910.833 2258.85 912 2254.19 912C2250.19 912 2246.52 911 2243.19 909C2239.85 907 2236.85 904.5 2234.19 901.5C2231.85 898.167 2229.69 894.667 2227.69 891C2226.02 887.333 2224.35 884 2222.69 881L2222.19 816C2222.19 777.667 2223.02 739.5 2224.69 701.5C2226.35 663.5 2229.69 625.5 2234.69 587.5C2236.35 587.167 2238.02 587 2239.69 587C2241.69 586.667 2243.52 586.5 2245.19 586.5C2254.19 586.5 2263.02 590.333 2271.69 598C2280.35 605.667 2288.52 615.667 2296.19 628C2304.19 640.333 2311.69 654.167 2318.69 669.5C2325.69 684.5 2332.02 699.5 2337.69 714.5C2343.35 729.167 2348.35 743 2352.69 756C2357.35 768.667 2361.02 778.833 2363.69 786.5L2367.19 779.5V785.5L2368.19 786C2368.85 785.333 2369.69 779.833 2370.69 769.5C2372.02 759.167 2373.35 746.333 2374.69 731C2376.02 715.667 2377.19 698.833 2378.19 680.5C2379.52 661.833 2380.69 644.167 2381.69 627.5C2383.02 610.833 2384.19 596.167 2385.19 583.5C2386.19 570.5 2386.85 561.833 2387.19 557.5ZM2501.32 770C2502.65 734.667 2504.98 699.333 2508.32 664C2511.65 628.667 2515.82 593.333 2520.82 558C2534.15 558.667 2544.65 561.667 2552.32 567C2559.98 572.333 2563.65 582.167 2563.32 596.5C2561.98 629.833 2558.82 663.167 2553.82 696.5C2549.15 729.5 2546.15 762.833 2544.82 796.5C2544.15 813.5 2544.48 830.5 2545.82 847.5C2547.15 864.167 2547.48 880.833 2546.82 897.5C2546.82 901.167 2545.65 903.833 2543.32 905.5C2541.32 907.167 2538.65 908 2535.32 908C2527.98 907.667 2521.98 904.833 2517.32 899.5C2512.65 893.833 2508.98 886.833 2506.32 878.5C2503.98 869.833 2502.32 860.333 2501.32 850C2500.32 839.333 2499.82 829 2499.82 819C2499.82 808.667 2499.98 799.167 2500.32 790.5C2500.65 781.833 2500.98 775 2501.32 770ZM2677.96 875.5C2684.96 872.833 2693.79 869.167 2704.46 864.5C2715.13 859.833 2725.96 855.333 2736.96 851C2748.29 846.333 2759.13 842.5 2769.46 839.5C2780.13 836.167 2788.79 834.5 2795.46 834.5C2799.46 834.5 2803.79 835 2808.46 836C2813.13 836.667 2817.79 838 2822.46 840C2827.13 841.667 2831.46 843.833 2835.46 846.5C2839.79 848.833 2843.29 851.5 2845.96 854.5C2845.63 856.167 2844.96 858.333 2843.96 861C2843.29 863.333 2841.63 864.5 2838.96 864.5C2823.96 864.5 2810.13 866.667 2797.46 871C2784.79 875.333 2772.46 880 2760.46 885C2748.79 890 2737.13 894.667 2725.46 899C2713.79 903.333 2701.63 905.5 2688.96 905.5C2675.96 905.5 2665.96 902.667 2658.96 897C2652.29 891 2647.46 883.5 2644.46 874.5C2641.79 865.5 2640.29 855.667 2639.96 845C2639.63 834.333 2639.46 824.167 2639.46 814.5C2639.46 787.167 2640.29 760 2641.96 733C2643.96 706 2646.46 679 2649.46 652C2650.79 640 2652.63 627.5 2654.96 614.5C2657.63 601.167 2658.96 588.667 2658.96 577C2658.96 570.667 2657.96 564.167 2655.96 557.5C2660.96 557.833 2666.29 558.5 2671.96 559.5C2677.63 560.167 2682.79 561.667 2687.46 564C2692.46 566 2696.46 569 2699.46 573C2702.79 576.667 2704.46 581.833 2704.46 588.5C2704.46 591.167 2704.29 593.667 2703.96 596C2703.63 598.333 2703.13 600.833 2702.46 603.5C2694.13 647.833 2687.63 692.167 2682.96 736.5C2678.63 780.5 2676.46 825 2676.46 870C2676.46 870.667 2676.63 871.667 2676.96 873C2677.29 874 2677.63 874.833 2677.96 875.5ZM2861.67 603C2868.67 595.667 2876.67 589.167 2885.67 583.5C2895 577.833 2904.83 573.167 2915.17 569.5C2925.83 565.833 2936.5 563.167 2947.17 561.5C2958.17 559.5 2968.67 558.5 2978.67 558.5C2989.33 558.5 3000.83 559.833 3013.17 562.5C3025.83 564.833 3037.33 568.833 3047.67 574.5C3058.33 579.833 3067.17 587.167 3074.17 596.5C3081.17 605.5 3084.67 616.5 3084.67 629.5C3084.67 632.167 3083.33 634.667 3080.67 637C3078.33 639.333 3075.83 640.5 3073.17 640.5C3067.83 640.5 3063.83 639.333 3061.17 637C3058.83 634.333 3056.83 631 3055.17 627C3053.83 623 3052.33 618.833 3050.67 614.5C3049 610.167 3046.5 606 3043.17 602C3040.17 598 3035.83 594.833 3030.17 592.5C3024.5 589.833 3016.67 588.5 3006.67 588.5C3000 588.5 2993.33 589.333 2986.67 591C2980 592.333 2973.5 594 2967.17 596C2966.17 598 2965 601.833 2963.67 607.5C2962.67 613.167 2961.5 619.833 2960.17 627.5C2958.83 635.167 2957.5 643.5 2956.17 652.5C2955.17 661.167 2954.17 669.5 2953.17 677.5C2952.17 685.5 2951.33 692.667 2950.67 699C2950 705.333 2949.67 709.833 2949.67 712.5C2955.33 710.5 2961 708.833 2966.67 707.5C2972.33 706.167 2978.17 705.5 2984.17 705.5C2994.17 705.5 3004.17 707.833 3014.17 712.5L3013.17 726.5C2999.5 727.833 2986.67 732 2974.67 739C2963 746 2951.33 752.667 2939.67 759C2939.67 769 2939.17 779 2938.17 789C2937.17 799 2936.67 809 2936.67 819C2936.67 831.333 2938.17 843 2941.17 854C2944.5 865 2950.5 875 2959.17 884C2970.83 881.667 2979.83 877.167 2986.17 870.5C2992.5 863.833 2998.33 857 3003.67 850C3009.33 842.667 3015.5 836.167 3022.17 830.5C3028.83 824.833 3038.33 822 3050.67 822C3052 822 3053.67 822.167 3055.67 822.5C3058 822.5 3060.17 822.833 3062.17 823.5C3064.17 823.833 3065.83 824.667 3067.17 826C3068.83 827 3069.67 828.5 3069.67 830.5C3069.67 831.167 3069.5 832 3069.17 833C3068.83 834 3068.5 834.833 3068.17 835.5C3061.17 843.167 3054.33 851.333 3047.67 860C3041.33 868.333 3034.5 876 3027.17 883C3019.83 890 3011.67 895.833 3002.67 900.5C2993.67 905.167 2983.33 907.5 2971.67 907.5C2958 907.5 2946.33 903.667 2936.67 896C2927 888 2919.17 878.333 2913.17 867C2907.17 855.333 2902.67 842.833 2899.67 829.5C2897 816.167 2895.67 804 2895.67 793C2895.67 777.667 2896.67 762.333 2898.67 747C2900.67 731.667 2903 716.5 2905.67 701.5C2908.67 686.167 2911.5 671 2914.17 656C2916.83 640.667 2919 625.333 2920.67 610C2916 612.667 2911.33 615.833 2906.67 619.5C2902.33 623.167 2897.33 625 2891.67 625C2885.67 625 2879.83 622.5 2874.17 617.5C2868.83 612.5 2864.67 607.667 2861.67 603ZM3300.69 590C3299.02 615.333 3297.52 641.333 3296.19 668C3295.19 694.667 3293.85 721.5 3292.19 748.5C3290.85 775.167 3289.19 801.833 3287.19 828.5C3285.52 854.833 3283.35 880.667 3280.69 906C3280.35 908.667 3279.69 910.667 3278.69 912C3277.69 913.333 3275.85 914 3273.19 914C3265.85 914 3258.85 911.667 3252.19 907C3245.52 902.333 3242.19 896.167 3242.19 888.5C3242.19 840.833 3244.02 792.667 3247.69 744C3251.69 695 3255.52 646.667 3259.19 599C3248.19 599.667 3237.69 600.5 3227.69 601.5C3217.69 602.5 3207.19 603 3196.19 603C3178.19 603 3162.02 600.167 3147.69 594.5C3133.69 588.5 3120.85 578.5 3109.19 564.5L3118.19 564C3129.19 565.667 3139.35 568 3148.69 571C3158.35 574 3169.19 575.5 3181.19 575.5C3195.19 575.5 3209.19 574.333 3223.19 572C3237.19 569.333 3251.02 566.5 3264.69 563.5C3278.35 560.5 3292.19 557.833 3306.19 555.5C3320.19 552.833 3334.19 551.5 3348.19 551.5C3361.52 551.5 3373.85 553.667 3385.19 558C3396.85 562.333 3407.52 569.167 3417.19 578.5L3420.19 585C3420.19 587.667 3419.19 589.833 3417.19 591.5C3415.52 592.833 3413.52 593.5 3411.19 593.5C3409.85 593.5 3407.52 592.833 3404.19 591.5C3401.19 590.167 3397.52 588.833 3393.19 587.5C3389.19 585.833 3384.69 584.333 3379.69 583C3374.69 581.667 3369.69 581 3364.69 581C3353.02 581 3342.35 582 3332.69 584C3323.02 586 3312.35 588 3300.69 590Z" fill="white"/>
<path fill-rule="evenodd" clip-rule="evenodd" d="M733.955 95.9277C659.129 154.786 659.47 239.771 734.988 353.772C804.586 458.839 827.047 511.041 831.452 577.936C847.716 825.007 582.592 1008.92 314.784 936.348C308.496 934.644 322.044 942.518 344.89 953.851C568.987 1064.99 844.645 950.868 924.676 713.814C963.307 599.385 943.86 507.839 837.5 303.459C787.832 208.015 763.747 143.658 763.747 106.364C763.747 78.2287 758.705 76.4601 733.955 95.9277ZM201.37 197.457C203.854 253.305 201.677 266.357 175.605 351.922C123.719 522.189 124.023 584.004 177.194 677.316C320.835 929.402 777.764 895.533 777.568 632.815C777.487 523.654 621.2 470.925 513.287 543.645C398.311 621.127 530.97 761.791 678.985 719.339C707.862 711.06 707.693 720.305 678.566 742.523C599.018 803.194 461.318 798.391 380.997 732.144C310.535 674.025 299.694 591.811 344.093 452.311C403.927 264.332 368.462 177.814 216.386 140.776L198.657 136.456L201.37 197.457ZM688.273 416.066C665.117 427.974 654.508 446.229 664.782 456.5C672.94 464.657 681.709 462.568 702.766 447.455C712.28 440.62 717.063 441.39 728.292 451.549C743.979 465.748 756.825 461.309 756.825 441.697C756.825 417.575 715.429 402.1 688.273 416.066ZM459.124 432.969C440.702 439.702 417.583 464.745 417.583 477.965C417.583 499.499 436.605 500.12 454.618 479.174C469.772 461.556 473.076 460.52 489.79 468.137C516.473 480.294 528.357 478.509 528.357 462.342C528.357 452.683 520.679 444.933 504.347 438.112C478.777 427.427 475.348 427.039 459.124 432.969ZM603.227 610.3C605.269 635.087 596.065 656.549 583.388 656.549C571.336 656.549 556.05 633.821 556.05 615.899C556.05 572.063 599.653 566.889 603.227 610.3ZM697.237 591.342C709.253 622.656 693.346 660.977 671.772 652.698C655.923 646.616 649.311 618.171 658.873 597.188C667.499 578.253 690.848 574.696 697.237 591.342Z" fill="#FF7C60"/>
</g>
<defs>
<clipPath id="clip0_1204_55">
<rect width="3657" height="1080" fill="white"/>
</clipPath>
</defs>
</svg>
